<svg width="90" height="90" viewBox="0 0 90 90" fill="none" xmlns="http://www.w3.org/2000/svg">
<path d="M75.8333 30.9375H59.3802L62.2477 14.5652C62.3628 13.8373 62.198 13.0915 61.7887 12.4885C61.3793 11.8856 60.7583 11.4738 60.0593 11.342C59.3604 11.2101 58.6396 11.3686 58.0521 11.7835C57.4647 12.1983 57.0578 12.8362 56.919 13.5597L53.8721 30.9375H37.7135L40.581 14.5652C40.6962 13.8373 40.5314 13.0915 40.122 12.4885C39.7127 11.8856 39.0916 11.4738 38.3927 11.342C37.6937 11.2101 36.9729 11.3686 36.3855 11.7835C35.7981 12.1983 35.3911 12.8362 35.2523 13.5597L32.2089 30.9375H16.25C15.5317 30.9375 14.8428 31.2338 14.3349 31.7612C13.827 32.2887 13.5417 33.0041 13.5417 33.75C13.5417 34.4959 13.827 35.2113 14.3349 35.7387C14.8428 36.2662 15.5317 36.5625 16.25 36.5625H31.2237L28.2682 53.4375H10.8333C10.115 53.4375 9.42616 53.7338 8.91825 54.2612C8.41034 54.7887 8.125 55.5041 8.125 56.25C8.125 56.9959 8.41034 57.7113 8.91825 58.2387C9.42616 58.7662 10.115 59.0625 10.8333 59.0625H27.2865L24.419 75.4347C24.2907 76.1685 24.4483 76.9252 24.8572 77.5383C25.266 78.1514 25.8926 78.5708 26.5992 78.7043C26.7589 78.7349 26.921 78.7502 27.0833 78.75C27.717 78.7491 28.3303 78.5174 28.8165 78.0954C29.3027 77.6734 29.631 77.0877 29.7443 76.4402L32.7911 59.0625H48.9531L46.0857 75.4347C45.9574 76.1685 46.115 76.9252 46.5239 77.5383C46.9327 78.1514 47.5593 78.5708 48.2659 78.7043C48.4256 78.7349 48.5876 78.7502 48.75 78.75C49.3837 78.7491 49.997 78.5174 50.4832 78.0954C50.9694 77.6734 51.2977 77.0877 51.4109 76.4402L54.4578 59.0625H70.4167C71.135 59.0625 71.8238 58.7662 72.3317 58.2387C72.8397 57.7113 73.125 56.9959 73.125 56.25C73.125 55.5041 72.8397 54.7887 72.3317 54.2612C71.8238 53.7338 71.135 53.4375 70.4167 53.4375H55.443L58.3984 36.5625H75.8333C76.5516 36.5625 77.2405 36.2662 77.7484 35.7387C78.2563 35.2113 78.5417 34.4959 78.5417 33.75C78.5417 33.0041 78.2563 32.2887 77.7484 31.7612C77.2405 31.2338 76.5516 30.9375 75.8333 30.9375ZM49.9349 53.4375H33.7763L36.7318 36.5625H52.8904L49.9349 53.4375Z" fill="#2EA1FF" fill-opacity="0.93"/>
<path d="M75.8333 30.9375H59.3802L62.2477 14.5652C62.3628 13.8373 62.198 13.0915 61.7887 12.4885C61.3793 11.8856 60.7583 11.4738 60.0593 11.342C59.3604 11.2101 58.6396 11.3686 58.0521 11.7835C57.4647 12.1983 57.0578 12.8362 56.919 13.5597L53.8721 30.9375H37.7135L40.581 14.5652C40.6962 13.8373 40.5314 13.0915 40.122 12.4885C39.7127 11.8856 39.0916 11.4738 38.3927 11.342C37.6937 11.2101 36.9729 11.3686 36.3855 11.7835C35.7981 12.1983 35.3911 12.8362 35.2523 13.5597L32.2089 30.9375H16.25C15.5317 30.9375 14.8428 31.2338 14.3349 31.7612C13.827 32.2887 13.5417 33.0041 13.5417 33.75C13.5417 34.4959 13.827 35.2113 14.3349 35.7387C14.8428 36.2662 15.5317 36.5625 16.25 36.5625H31.2237L28.2682 53.4375H10.8333C10.115 53.4375 9.42616 53.7338 8.91825 54.2612C8.41034 54.7887 8.125 55.5041 8.125 56.25C8.125 56.9959 8.41034 57.7113 8.91825 58.2387C9.42616 58.7662 10.115 59.0625 10.8333 59.0625H27.2865L24.419 75.4348C24.2907 76.1685 24.4483 76.9252 24.8572 77.5383C25.266 78.1515 25.8926 78.5708 26.5992 78.7043C26.7589 78.735 26.921 78.7503 27.0833 78.75C27.717 78.7491 28.3303 78.5174 28.8165 78.0954C29.3027 77.6734 29.631 77.0877 29.7443 76.4402L32.7911 59.0625H48.9531L46.0857 75.4348C45.9574 76.1685 46.115 76.9252 46.5239 77.5383C46.9327 78.1515 47.5593 78.5708 48.2659 78.7043C48.4256 78.735 48.5876 78.7503 48.75 78.75C49.3837 78.7491 49.997 78.5174 50.4832 78.0954C50.9694 77.6734 51.2977 77.0877 51.4109 76.4402L54.4578 59.0625H70.4167C71.135 59.0625 71.8238 58.7662 72.3317 58.2387C72.8397 57.7113 73.125 56.9959 73.125 56.25C73.125 55.5041 72.8397 54.7887 72.3317 54.2612C71.8238 53.7338 71.135 53.4375 70.4167 53.4375H55.443L58.3984 36.5625H75.8333C76.5516 36.5625 77.2405 36.2662 77.7484 35.7387C78.2563 35.2113 78.5417 34.4959 78.5417 33.75C78.5417 33.0041 78.2563 32.2887 77.7484 31.7612C77.2405 31.2338 76.5516 30.9375 75.8333 30.9375ZM49.9349 53.4375H33.7763L36.7318 36.5625H52.8904L49.9349 53.4375Z" fill="#2EA1FF" fill-opacity="0.93" style="mix-blend-mode:soft-light"/>
<path d="M71.85 22.6731C73.5076 22.6731 75.0973 21.9893 76.2694 20.7721C77.4415 19.5549 78.1 17.9041 78.1 16.1827C78.1 14.4613 77.4415 12.8105 76.2694 11.5933C75.0973 10.3761 73.5076 9.69232 71.85 9.69232C70.1924 9.69232 68.6027 10.3761 67.4306 11.5933C66.2585 12.8105 65.6 14.4613 65.6 16.1827C65.6 17.9041 66.2585 19.5549 67.4306 20.7721C68.6027 21.9893 70.1924 22.6731 71.85 22.6731ZM69.0875 31.9587C69.5556 31.23 69.8768 30.4105 70.0318 29.5495C70.1868 28.6886 70.1724 27.8039 69.9894 26.9489C69.8065 26.0938 69.4587 25.2861 68.9672 24.5743C68.4756 23.8625 67.8504 23.2614 67.1292 22.8072L56.7125 16.2822C55.6454 15.6143 54.4104 15.2929 53.1661 15.3592C51.9217 15.4255 50.7249 15.8765 49.7292 16.6543L40.025 24.2265C39.3069 24.8442 38.8469 25.7267 38.7416 26.6889C38.6363 27.6511 38.8938 28.6183 39.4601 29.3877C40.0264 30.1571 40.8575 30.6689 41.7792 30.8158C42.701 30.9628 43.6417 30.7335 44.4042 30.176L52.5209 24.2741L56.3625 27.3462L47.8709 37.9255C45.1655 37.6264 42.4299 37.9121 39.8362 38.7648C37.2424 39.6174 34.8468 41.0185 32.8 42.8798L37.2334 47.488C39.832 45.2739 43.1307 44.1427 46.488 44.3142C49.8453 44.4857 53.0212 45.9477 55.3981 48.416C57.7749 50.8843 59.1828 54.1823 59.348 57.6687C59.5131 61.1551 58.4238 64.5807 56.2917 67.2793L60.725 71.8789C62.6967 69.5424 64.1303 66.7706 64.9172 63.7733C65.7041 60.7761 65.8236 57.6321 65.2667 54.5798L69.6125 53.3164L68.8334 66.2582C68.7982 66.7577 68.8591 67.2594 69.0126 67.7341C69.1661 68.2089 69.4091 68.6472 69.7274 69.0234C70.0457 69.3997 70.4329 69.7063 70.8665 69.9256C71.3001 70.1448 71.7713 70.2722 72.2528 70.3003C72.7343 70.3285 73.2164 70.2568 73.6709 70.0895C74.1255 69.9222 74.5434 69.6626 74.9003 69.3258C75.2572 68.989 75.546 68.5818 75.7499 68.128C75.9537 67.6741 76.0685 67.1826 76.0875 66.6822L76.9459 48.851C76.9741 48.2652 76.8874 47.6795 76.6909 47.1296C76.4945 46.5797 76.1924 46.077 75.8031 45.6521C75.4138 45.2272 74.9453 44.8889 74.4262 44.6578C73.9071 44.4267 73.3482 44.3076 72.7834 44.3077H61.1584L69.0875 31.9587ZM34.4459 50.7116C32.7551 53.4137 32.0093 56.6369 32.3333 59.8417C32.6573 63.0465 34.0313 66.0386 36.2256 68.3172C38.4198 70.5959 41.3011 72.0228 44.3872 72.3592C47.4733 72.6956 50.5771 71.9212 53.1792 70.1654L57.6667 74.8255C53.8554 77.7939 49.1408 79.2351 44.3887 78.8844C39.6365 78.5337 35.1656 76.4146 31.7969 72.9163C28.4281 69.4179 26.3875 64.7751 26.0498 59.8402C25.7121 54.9052 27.0999 50.0094 29.9584 46.0515L34.4459 50.7116Z" fill="#FF114C" style="mix-blend-mode:color-burn"/>
<g clip-path="url(#clip0_9_16)">
<path d="M73.3332 23.3654C74.9908 23.3654 76.5805 22.6816 77.7526 21.4644C78.9247 20.2472 79.5832 18.5964 79.5832 16.875C79.5832 15.1537 78.9247 13.5028 77.7526 12.2856C76.5805 11.0685 74.9908 10.3846 73.3332 10.3846C71.6756 10.3846 70.0859 11.0685 68.9138 12.2856C67.7417 13.5028 67.0832 15.1537 67.0832 16.875C67.0832 18.5964 67.7417 20.2472 68.9138 21.4644C70.0859 22.6816 71.6756 23.3654 73.3332 23.3654ZM70.5707 32.651C71.0388 31.9223 71.36 31.1029 71.515 30.2419C71.67 29.3809 71.6556 28.4962 71.4726 27.6412C71.2896 26.7861 70.9419 25.9784 70.4503 25.2666C69.9588 24.5548 69.3335 23.9537 68.6123 23.4995L58.1957 16.9745C57.1285 16.3067 55.8935 15.9852 54.6492 16.0515C53.4049 16.1178 52.208 16.5689 51.2123 17.3467L41.5082 24.9188C40.79 25.5365 40.3301 26.419 40.2248 27.3812C40.1194 28.3434 40.3769 29.3106 40.9432 30.08C41.5095 30.8494 42.3407 31.3612 43.2624 31.5082C44.1841 31.6551 45.1249 31.4258 45.8873 30.8683L54.004 24.9664L57.8457 28.0385L49.354 38.6178C46.6487 38.3187 43.9131 38.6044 41.3193 39.4571C38.7256 40.3098 36.3299 41.7108 34.2832 43.5721L38.7165 48.1803C41.3152 45.9663 44.6139 44.835 47.9712 45.0065C51.3285 45.178 54.5044 46.6401 56.8812 49.1083C59.2581 51.5766 60.666 54.8746 60.8311 58.361C60.9963 61.8475 59.9069 65.2731 57.7748 67.9717L62.2082 72.5712C64.1799 70.2348 65.6135 67.4629 66.4004 64.4656C67.1873 61.4684 67.3068 58.3245 66.7498 55.2721L71.0957 54.0087L70.3165 66.9505C70.2814 67.45 70.3423 67.9517 70.4958 68.4265C70.6493 68.9012 70.8923 69.3395 71.2105 69.7157C71.5288 70.092 71.916 70.3987 72.3496 70.6179C72.7832 70.8371 73.2545 70.9645 73.736 70.9927C74.2175 71.0208 74.6995 70.9491 75.1541 70.7818C75.6086 70.6145 76.0265 70.3549 76.3835 70.0181C76.7404 69.6814 77.0292 69.2742 77.233 68.8203C77.4368 68.3664 77.5516 67.875 77.5707 67.3746L78.429 49.5433C78.4573 48.9575 78.3705 48.3719 78.1741 47.822C77.9776 47.2721 77.6756 46.7694 77.2862 46.3444C76.8969 45.9195 76.4285 45.5812 75.9094 45.3501C75.3903 45.119 74.8313 44.9999 74.2665 45H62.6415L70.5707 32.651ZM35.929 51.4039C34.2383 54.106 33.4925 57.3292 33.8165 60.534C34.1404 63.7389 35.5145 66.731 37.7087 69.0096C39.9029 71.2882 42.7842 72.7151 45.8704 73.0515C48.9565 73.388 52.0603 72.6135 54.6623 70.8577L59.1498 75.5178C55.3385 78.4863 50.624 79.9274 45.8718 79.5767C41.1197 79.226 36.6488 77.1069 33.28 73.6086C29.9113 70.1103 27.8707 65.4674 27.533 60.5325C27.1952 55.5975 28.583 50.7017 31.4415 46.7438L35.929 51.4039Z" fill="#FF114C"/>
</g>
<defs>
<clipPath id="clip0_9_16">
<rect width="66.6667" height="69.2308" fill="white" transform="translate(23.3333 10.3846)"/>
</clipPath>
</defs>
</svg>